HIERARCHY
ROOT Hips
{
  OFFSET 0 0 0
  CHANNELS 6 Xposition Yposition Zposition Zrotation Xrotation Yrotation
  JOINT Spine
  {
    OFFSET 0 9.9235 -1.22729
    CHANNELS 3 Zrotation Xrotation Yrotation
    JOINT Spine1
    {
      OFFSET -9.9969e-05 11.6454 -1.4223
      CHANNELS 3 Zrotation Xrotation Yrotation
      JOINT Spine2
      {
        OFFSET 9.98118e-05 13.3602 -1.6265
        CHANNELS 3 Zrotation Xrotation Yrotation
        JOINT Neck
        {
          OFFSET 0 15.0325 0.7929
          CHANNELS 3 Zrotation Xrotation Yrotation
          JOINT Head
          {
            OFFSET 0 10.3218 3.1424
            CHANNELS 3 Zrotation Xrotation Yrotation
            End Site
            {
              OFFSET 0.0002 18.4747 6.6364
            }
          }
        }
        JOINT LeftShoulder
        {
          OFFSET 6.1058 9.1104 0.7056
          CHANNELS 3 Zrotation Xrotation Yrotation
          JOINT LeftArm
          {
            OFFSET 12.655 -0.265904 -2.60091
            CHANNELS 3 Zrotation Xrotation Yrotation
            JOINT LeftForeArm
            {
              OFFSET 27.4047 0 0
              CHANNELS 3 Zrotation Xrotation Yrotation
              JOINT LeftHand
              {
                OFFSET 27.6145 -1.98104e-05 0
                CHANNELS 3 Zrotation Xrotation Yrotation
                End Site
                {
                  OFFSET 12.7755 0 0
                }
              }
            }
          }
        }
        JOINT RightShoulder
        {
          OFFSET -6.1057 9.1105 0.7056
          CHANNELS 3 Zrotation Xrotation Yrotation
          JOINT RightArm
          {
            OFFSET -12.655 -0.265999 -2.6009
            CHANNELS 3 Zrotation Xrotation Yrotation
            JOINT RightForeArm
            {
              OFFSET -27.4047 0 0
              CHANNELS 3 Zrotation Xrotation Yrotation
              JOINT RightHand
              {
                OFFSET -27.6145 0 0
                CHANNELS 3 Zrotation Xrotation Yrotation
                End Site
                {
                  OFFSET -12.7755 0 0
                }
              }
            }
          }
        }
      }
    }
  }
  JOINT RightUpLeg
  {
    OFFSET -9.12449 -6.6564 -0.0554004
    CHANNELS 3 Zrotation Xrotation Yrotation
    JOINT RightLeg
    {
      OFFSET -0.245231 -40.5954 -0.51698
      CHANNELS 3 Zrotation Xrotation Yrotation
      JOINT RightFoot
      {
        OFFSET 0.244701 -42.0479 -2.0602
        CHANNELS 3 Zrotation Xrotation Yrotation
        JOINT RightToe
        {
          OFFSET -0.373402 -10.4922 12.6407
          CHANNELS 3 Zrotation Xrotation Yrotation
          End Site
          {
            OFFSET 0 0 9.9925
          }
        }
      }
    }
  }
  JOINT LeftUpLeg
  {
    OFFSET 9.1245 -6.6564 -0.055401
    CHANNELS 3 Zrotation Xrotation Yrotation
    JOINT LeftLeg
    {
      OFFSET 0.245022 -40.5954 -0.518725
      CHANNELS 3 Zrotation Xrotation Yrotation
      JOINT LeftFoot
      {
        OFFSET -0.244696 -42.048 -2.0576
        CHANNELS 3 Zrotation Xrotation Yrotation
        JOINT LeftToe
        {
          OFFSET 0.373399 -10.4922 12.6407
          CHANNELS 3 Zrotation Xrotation Yrotation
          End Site
          {
            OFFSET 0 0 9.9925
          }
        }
      }
    }
  }
}
MOTION
Frames: 12
Frame Time:	0.0333333
 -0.05123   97.9313 -0.299134   2.1419 -5.44023 -15.7345 -0.986492   7.03234 -0.870057 -0.136518   2.12375 -0.552956 -0.131378   2.12789 -0.542347  -8.8929  3.22341 -2.78478 -65.0766  9.19842 -5.15049  6.87347e-17 -1.27222e-14     -21.7144 -4.76354  16.2124 -3.45308 11.4102 4.03975 10.5716  71.8622 -23.0107  3.69164  3.36809e-15 -3.18055e-15      15.6474 8.01661   28.78 2.69117     1.21789 -0.00385609     2.46531 -4.65949 -4.83734  13.9065  2.96068 -6.45751  8.40391 1.18003 15.2618 1.05693  -6.02443  -3.59973 0.0319529 -2.92662e-17      1.27803  1.59067e-15  -1.61914 -0.821062  -11.0247 -0.643443   21.0821  -9.61672 0.405985 -16.2466 -3.39249 0.000338584   0.0816697  3.1737e-15 
-0.108314   97.2432  0.291841   2.6209 -5.18253 -15.7964 -1.34226  5.97212 -1.12994 0.0756071   1.43358  -1.06684 -0.174984   2.25198 -0.317568 -9.14655  3.76222 -2.80634 -65.5425  10.5538 -4.78052  0.108354 -0.489845  -21.9541  -3.8634  15.8434 -2.82637 11.2195 4.21069 10.8175  71.4772 -22.8134  2.38054 -0.235178 0.0492545   16.5093 8.33777 27.9807 3.13205  1.19257 0.371134  2.61774 -4.61387 -3.94668  14.5836  2.57966 -7.43756  9.75911 1.60544  17.589 3.08507 -7.08223 -6.81339 0.441178  0.203172 -0.164162  0.261777  -2.50651 0.0316193  -11.2787 -0.905436   21.0529  -10.1791  1.79369 -18.7166 -2.66527   1.8231 -2.07833 -1.00428 
-0.270069   96.2351   1.04068  2.88474 -5.39037 -15.6887  -2.10725   5.45835 -0.956293 0.704531  0.42469 -1.74066 -0.407891   2.60088  -0.59472   -9.409  4.31858 -2.42259 -65.7426  11.6734  -4.8158 -0.117142 -0.700927  -22.9104 -3.68166  15.0203 -1.69926 11.7999  4.0478  10.633  70.9199 -22.8883  0.96599 -0.449147  0.111896    18.498 9.26495 26.6027 3.06654   1.5157 0.480224   2.4196 -4.50013 -3.55585  15.7265  2.43064 -7.99931  10.1178 1.64101 20.6487 4.24848 -7.85926 -10.0484 0.176977 0.193914 -1.10781 0.275066  -3.3217  1.01868 -10.6138 -0.704603   21.5991  -10.4188  2.88669 -20.8858 -1.74235   5.40155  -1.21569 -0.272355 
-0.403036   96.0759   2.04158   2.7975 -5.47707 -15.2627 -2.22917  4.86182 -1.21154  0.776878 -0.339416  -2.47014  -0.39613   3.00941 -0.820153 -9.20403  4.74644 -2.32264 -65.2058   13.138 -6.38776 -0.537504 -0.825688  -22.6723 -3.96345  13.8487 -1.39019 12.2953 4.50341  10.185   69.6566  -22.2989 -0.239287 -0.375311  0.109488   21.0857 10.6917 24.9318 3.02511  1.63938 0.464228  2.63997 -4.47922 -3.72338  16.6454 1.91141 -8.0403 10.1946 1.53614 22.5564 4.11178 -8.04178 -12.0621 0.327969 0.238581 -1.80855 0.485782 -3.33985  2.10168 -10.7072 -0.475468   21.4096  -9.68992   2.9529 -21.5844 -1.44494  5.61677 -1.76891 -1.29853 
-0.28044  95.8356  3.12935  2.75241 -5.33685 -15.1909  -2.1212  4.01484 -1.55314  0.995265 -0.879871  -3.31169 -0.451294   3.32215  -1.19824 -9.20159  5.43842 -2.37299 -63.4781  15.3089 -9.74409 -0.508286 -0.882255  -21.8689 -4.16516  12.5742 -2.50352 12.4371 4.88156 9.89208  67.1427 -21.5323 -1.03644 -0.345219 -0.289499   24.3113 11.6416 22.3197 3.13495  1.38612 0.641454  2.80675   -4.493 -3.76454  17.5746 0.924021 -8.53267  10.6634  1.6721 25.5775 2.33888 -6.73652 -14.4247  0.96477 0.236902 -2.32461 0.719646 -3.49225  2.74064 -10.7085 -0.462236    21.627  -8.96602  3.20636 -23.0946 -1.64408  7.34279 -1.91397 -1.65923 
-0.0171031    95.6974     4.4536   2.9973 -5.13081 -15.5049 -2.31322  3.07722  -1.7402  1.28228 -1.77324 -4.30621 -0.672828   3.75465  -1.79375 -9.32143  6.34647 -2.21105 -60.3015  17.7441 -14.1877 -0.489589 -0.908758  -22.4081 -3.52983  11.0638 -3.96818 12.8457 5.29607 9.52617  63.1568 -21.0691 -1.32626 -0.326787 -0.809222    28.068 11.1015 18.9353 3.14205    1.225 0.844898  2.88169 -4.53667  -3.8741  18.8809 -0.609549  -9.33323   11.4328    1.65603     29.874 -0.0110946 -5.24178 -16.4512  1.86562 0.208516 -3.90256   1.0152 -4.10732  3.44048 -10.6235 -0.506532   21.4026  -7.85836  3.49734 -24.1564 -2.30875  9.08102 -1.81208  0.33399 
0.361557   95.789  5.70626  3.52846 -4.69481 -16.8728 -3.02881  2.62166 -1.81648  1.58607 -2.90862  -4.9886 -0.936545   4.04549  -2.37247 -9.18311  7.05732 -2.01969 -54.7918  19.7974 -19.9301 -0.569093   -1.0455  -25.0356 -1.76316  8.95983 -4.27689    13.7 5.51515 9.43889  57.6676 -20.8021 -0.59434 -0.440027  -1.07407   32.2248 9.03978 15.5842 2.94844  1.42411 0.904889  2.69928 -4.59006 -3.88753  20.6347 -2.38481 -10.9038  12.0244  1.27522  34.2494 -1.53029 -5.65538 -17.6525  1.97704 0.152737 -4.76435  1.16428 -5.08103  3.99372 -10.3509 -0.738213   20.1885  -6.01361  3.74438 -24.4558 -2.34003  10.5589 -1.93411  1.45975 
0.926125  96.0266  6.55373  3.84273 -3.93968 -19.2944 -3.7192  3.0807 -1.7229  1.92843 -3.56342 -4.80491 -1.00016  3.92113 -2.64913 -8.24599  7.16452 -2.50003 -46.8815    20.18 -27.8879 -0.634094   -1.2395  -27.6075  1.09529  5.89986 -3.95434 14.4116 5.45517 9.80602  51.0211 -20.6506  2.17931 -0.64617 -1.08453   36.265 6.08859 13.0571 2.66247  1.89076 0.833719  2.52891 -4.52755 -3.68907  22.7985 -3.85673 -13.8819  12.0692  1.01423  37.6132 -1.53563 -5.91723 -19.3662  1.69752 0.225021 -5.64216 0.971987 -5.87078  4.24986 -10.1135 -1.03949  18.0238 -4.00989  4.04341 -24.7739 -2.02403  10.9213 -1.92703  1.99343 
1.62152  96.246  7.0792  4.12859 -3.49294 -22.0012  -4.5786   4.4017 -1.73164  1.95648 -3.13073 -3.83325 -1.09191  3.38102 -2.54098 -6.34345  6.69624 -3.58152 -37.4672  17.8276  -37.119 -0.386625   -1.4523    -29.48  4.33679  2.50852 -3.39318 14.6727 5.23841 10.6397  44.1508 -20.9356  7.20218 -0.976421  -1.05565   39.5882 2.85248 11.5347 2.28399  2.34927 0.966596   2.4131 -4.66274 -3.40263  25.2752 -5.02843 -17.8899  11.3828 0.980153  39.8554 -1.55199  -5.6898 -19.8565   1.0109 0.535595 -5.68269 0.537111 -6.69349  4.50312 -10.2982 -1.65526  15.8753 -2.27251   4.33772  -25.2408 -0.840508   7.91838 -0.668413  -1.71419 
2.21936 96.3757 7.64026  4.08231 -3.46597 -24.1444 -5.46401  6.06803  -1.7381  1.75825 -2.06986 -2.55758 -1.37414   2.8938 -2.30724 -4.15477  5.86612 -5.03355 -28.7194  12.4737 -45.2201 0.0160142  -1.47855  -30.6878   7.63349 -0.124122  -2.74628 14.4117 4.85013 11.7127 37.5311 -22.609 13.8293 -1.43966 -1.11625  42.1478 -0.827435   11.0233   2.15627 2.62635 1.43416 2.20502 -4.81038 -3.03879  27.8051 -5.16304 -22.0545  10.2607  1.00172  41.0414 -3.03886  -5.13915  -18.6592 0.0959442   0.844737   -4.89323 -0.0527916 -7.25073  5.09002 -10.8784   -2.2624   14.2044 -0.915261   5.2167 -24.9116 -1.60976   5.20694  -1.38458 -0.981217 
 2.4316 96.2824 8.54341  3.55935  -3.3456 -26.2669  -6.2679  7.21006 -1.98519  1.32721 -1.13032 -1.55504 -1.51475  2.45938  -1.7165 -2.03994  5.13937 -6.35893 -21.8859  5.20259 -50.6966 0.448805 -1.52902 -30.9868  11.0035 -1.42491 -1.93379 13.8174  4.4325 13.1004  31.3026 -25.9198  20.8512  -1.64338 -0.993775   43.9639 -4.74236  11.4407  2.11257 2.57076 2.07196  2.0807 -4.74295 -2.70408  29.9054 -3.4203 -25.882 9.47262 0.997033  41.0467 -5.05864  -4.91792    -16.33 -0.774391   1.21229  -4.35817 -0.579642 -7.46662  5.80575 -12.0999  -2.45861   13.1965 -0.135129  5.97075  -24.502 -2.75208   2.99098  -1.18832 -0.805858 
2.18491 95.9527 9.97693  2.60623 -2.80624 -27.3322 -6.85039  7.61539 -2.45007   0.92517 -0.738353  -1.32639 -1.40635  2.09394 -1.30379 -0.325638   4.61932  -7.55708 -17.0001 -2.78065 -54.1137 0.724344 -1.63477 -30.2891   14.147 -1.61976  -1.1718 13.0542 4.14445 13.7967  25.8272 -30.2701  27.5875  -1.54069 -0.611199   44.8679 -8.16211  12.7164   2.3257 2.38232 2.53491 2.06213 -4.43657 -2.44355  31.5024 -0.0451626   -29.1343    9.51954 1.20353 39.8688 -6.3903 -5.41184 -13.4436 -1.69054   1.59631  -3.88029 -0.981768 -7.11256  6.69232 -13.1041 -2.09491  12.6461 0.778267  6.49566 -23.8035 -2.42486  2.51556 -1.23857  -5.7286 
